<?xml version="1.0" encoding="UTF-8" standalone="no"?>
<svg
   width="250"
   height="380"
   viewBox="0 0 250 380"
   fill="none"
   version="1.1"
   id="svg23"
   xmlns="http://www.w3.org/2000/svg"
   xmlns:svg="http://www.w3.org/2000/svg">
  <path
     d="m 134.53594,232.16802 -0.31505,0.006 v 0.0451 h -1.46876 -0.31959 v 0.31832 123.60082 0.3183 h 0.0181 v 22.5458 H 78.3794 55.06905 23.98858 0.99759001 V 356.13826 23.80587 0.99759001 H 23.98858 h 108.78165 0.0487 0.0952 l 0.13487,3.4e-4 c 10.47166,0.0249 20.79601,1.45503999 30.7169,4.18507999 19.18787,5.28049 36.86846,15.42436 51.19334,29.67093 21.79786,21.67777 34.04314,51.07913 34.04314,81.73606 0,30.65638 -12.24528,60.05752 -34.04314,81.73529 -14.32488,14.24679 -32.00547,24.39145 -51.19334,29.67092 -9.45057,2.60079 -19.26833,4.02197 -29.23002,4.17211 z M 132.73059,23.48748 H 23.98861 23.66914 v 0.31809 332.33239 0.3183 h 0.31947 31.08047 0.31948 v -0.3183 -301.04918 h 7.45064 15.54023 46.62094 c 10.83886,0 21.41593,2.37368 30.9447,6.81376 6.29207,2.93154 12.12516,6.76375 17.27486,11.40815 0.33999,0.30625 0.67658,0.6161 1.00977,0.92947 13.05333,12.25984 20.38237,28.88391 20.38237,46.21348 0,17.32959 -7.32904,33.95252 -20.38237,46.21258 -0.33319,0.31382 -0.66978,0.62312 -1.00977,0.93016 -5.1497,4.64394 -10.98279,8.47627 -17.27486,11.40781 -9.52877,4.43963 -20.10584,6.81352 -30.9447,6.81352 H 78.37943 78.06008 v 0.31833 170.00192 0.3183 h 0.31935 31.11742 0.31959 v -0.3183 -146.40967 h 5.94188 16.99381 0.0181 0.31959 v -0.0294 c 24.71497,-0.0836 48.40089,-9.88391 65.88315,-27.27106 17.55819,-17.46052 27.42242,-41.1442 27.42242,-65.83818 0,-24.69509 -9.86423,-48.37753 -27.42242,-65.83895 C 181.48051,33.35496 157.77985,23.55358 133.05129,23.47998 l -0.32073,-9.1e-4 z m -7.41063,139.58347 c 11.90756,-0.0779 23.3142,-4.55477 31.74595,-12.47454 0.33771,-0.31833 0.67091,-0.64004 0.99729,-0.96739 7.88323,-7.88704 12.29403,-18.31616 12.29403,-29.17538 0,-10.86033 -4.4108,-21.28946 -12.29403,-29.17649 -0.32638,-0.32623 -0.65958,-0.64908 -0.99729,-0.96627 -8.43175,-7.92022 -19.83839,-12.39722 -31.74595,-12.47589 v -0.20037 h -0.31959 -46.62094 -0.31935 v 0.3181 85.00084 0.31832 h 0.31935 46.62094 0.31959 z"
     stroke="url(#paint1_linear_5444_18715)"
     stroke-opacity="0.2"
     stroke-width="0.563698"
     id="path7"
     style="stroke:url(#paint1_linear_5444_18715);stroke-width:1.99518;stroke-dasharray:none" />
  <defs
     id="defs21">
    <linearGradient
       id="paint0_linear_5444_18715"
       x1="167"
       y1="-96.548302"
       x2="167"
       y2="394.58899"
       gradientUnits="userSpaceOnUse">
      <stop
         stop-color="white"
         stop-opacity="0.44"
         id="stop11" />
      <stop
         offset="1"
         stop-color="white"
         stop-opacity="0"
         id="stop13" />
    </linearGradient>
    <linearGradient
       id="paint1_linear_5444_18715"
       x1="127.532"
       y1="-60.3241"
       x2="127.532"
       y2="357.18201"
       gradientUnits="userSpaceOnUse"
       gradientTransform="matrix(1.133298,0,0,1.1288157,-19.53139,-23.8722)">
      <stop
         stop-color="white"
         stop-opacity="0.44"
         id="stop16"
         offset="0"
         style="stop-color:#ffffff;stop-opacity:0.85273153;" />
      <stop
         offset="1"
         stop-color="white"
         stop-opacity="0"
         id="stop18" />
    </linearGradient>
  </defs>
</svg>
