<?xml version="1.0" encoding="UTF-8" standalone="no"?>
<svg
   width="110"
   height="35"
   viewBox="0 0 110 35"
   fill="none"
   version="1.1"
   id="svg2279"
   xmlns="http://www.w3.org/2000/svg"
   xmlns:svg="http://www.w3.org/2000/svg">
  <defs
     id="defs2283" />
  <path
     id="path2247"
     style="fill:#ffffff"
     d="M 79.484375,0.1796875 V 26.744141 h 4.501953 V 0.1796875 Z M 0,0.91992188 V 26.714844 h 4.8867188 v -9.802735 h 5.4785152 c 5.389785,0 8.587891,-3.317038 8.587891,-7.9960934 0,-4.6790759 -3.198106,-7.99609373 -8.587891,-7.99609372 z M 4.8867188,5.0058594 h 5.2421872 c 2.872591,0 4.056641,1.8371525 4.056641,3.9101562 0,2.0729644 -1.18405,3.9082034 -4.056641,3.9082034 H 4.8867188 Z m 22.2695312,2.84375 c -5.537882,0 -8.794922,3.9097206 -8.794922,9.5957026 0,5.685985 3.256431,9.594054 8.853516,9.564454 2.339591,0 4.472931,-0.976335 5.361328,-2.457032 v 2.191407 h 4.53125 V 8.1464844 h -4.53125 V 10.248047 C 31.510075,8.7969409 29.466144,7.8496094 27.15625,7.8496094 Z m 20.611328,0 c -5.508282,0 -8.765625,3.9097206 -8.765625,9.5957026 0,5.685985 3.258384,9.59375 8.855469,9.59375 2.309994,10e-7 4.470575,-0.917946 5.388672,-2.36914 v 2.666016 c 0,1.954494 -1.302981,3.316406 -3.109375,3.316406 h -8.558594 v 3.613281 h 9.181641 c 4.145985,0 6.958984,-2.604887 6.958984,-6.484375 V 8.1464844 H 53.1875 V 10.248047 C 52.121303,8.7969409 50.107072,7.8496094 47.767578,7.8496094 Z m 20.730469,0 c -6.100582,0 -9.121094,4.6194746 -9.121094,9.5058596 0,4.886385 3.405581,9.654297 9.476563,9.654297 4.54916,0 8.007698,-2.53322 8.730468,-6.455078 h -4.376953 c -0.473797,1.776894 -1.984725,2.724609 -4.324219,2.724609 -2.872591,0 -4.767649,-1.925025 -5.123046,-4.916016 h 13.710937 c 0.0296,-0.355397 0.06055,-0.919118 0.06055,-1.541015 0,-4.442188 -2.784521,-8.9726566 -9.033203,-8.9726566 z m 9.085937,12.7050786 h 0.0059 v -0.0293 c -0.0018,0.0099 -0.004,0.01945 -0.0059,0.0293 z M 106.55273,7.8789062 c -0.68097,10e-8 -1.33223,0.2660828 -1.86523,0.7695313 -0.474,0.5034485 -0.74023,1.1567329 -0.74023,1.8378905 0,1.036497 0.62261,1.984141 1.59961,2.369141 0.97697,0.384997 2.0725,0.177797 2.8125,-0.5625 0.74097,-0.7404 0.97747,-1.866836 0.5625,-2.8144534 -0.385,-0.977277 -1.33315,-1.5996094 -2.36915,-1.5996094 z m -21.499996,0.2675782 6.810547,18.5976566 -2.634765,7.521484 h 4.324218 L 96.423828,25.855469 102.91016,8.1464844 H 98.261719 L 93.996094,20.910156 89.671875,8.1464844 Z m 21.339846,0.2070312 c 0.0529,-0.00226 0.10647,-0.00185 0.16015,0 1.155,0 2.07297,0.9465563 2.04297,2.1015624 0,0.858797 -0.50273,1.629281 -1.30273,1.955078 -0.799,0.3258 -1.71755,0.149241 -2.31055,-0.472656 -0.592,-0.621897 -0.77006,-1.511 -0.41406,-2.3105469 0.33281,-0.7496133 1.03053,-1.2396048 1.82422,-1.2734375 z m -0.81641,0.5917969 v 3.0214845 h 0.47266 v -1.302735 h 0.38476 l 0.85938,1.302735 h 0.5625 l -0.85938,-1.333985 c 0.207,0 0.41646,-0.08823 0.56446,-0.236328 0.148,-0.177697 0.23703,-0.384527 0.20703,-0.5917965 0,-0.5922782 -0.35611,-0.859375 -1.03711,-0.859375 h -1.125 z m 0.47266,0.4453125 h 0.68164 c 0.325,0 0.5332,0.088313 0.5332,0.4140625 0,0.3257695 -0.23664,0.4433595 -0.68164,0.4433595 h -0.5332 z m -37.58008,1.835937 c 2.694891,1e-6 4.324253,1.775338 4.501953,4.144532 h -9.152344 c 0.4739,-2.813391 2.1036,-4.144531 4.650391,-4.144532 z m -40.630859,0.533204 c 3.079891,0 5.064453,2.279958 5.064453,5.685546 0,3.435291 -1.984562,5.685547 -5.064453,5.685547 -2.990991,0 -4.97461,-2.250256 -4.97461,-5.685547 0,-3.435288 1.983619,-5.685546 4.97461,-5.685546 z m 20.611328,0 c 3.079891,0 5.064453,2.279958 5.064453,5.685546 0,3.435291 -2.043762,5.685547 -5.064453,5.685547 -3.020591,0 -4.97461,-2.250256 -4.97461,-5.685547 0,-3.435288 1.924319,-5.685546 4.97461,-5.685546 z" />
</svg>
