<?xml version="1.0" encoding="UTF-8" standalone="no"?>
<svg
   width="77"
   height="77"
   viewBox="0 0 77 77"
   fill="none"
   version="1.1"
   id="svg297"
   xmlns="http://www.w3.org/2000/svg"
   xmlns:svg="http://www.w3.org/2000/svg">
  <defs
     id="defs301" />
  <path
     id="path291"
     style="fill:#171518;fill-opacity:1"
     d="M 0,0 V 77 H 77.464844 V 0 Z m 22.380859,13.685547 h 17.214844 c 8.557492,0 15.5,6.893199 15.5,15.400391 0,8.507291 -6.942508,15.40039 -15.5,15.40039 V 63.314453 H 22.380859 Z m 3.441407,3.427734 v 42.773438 h 3.439453 V 20.529297 h 10.333984 c 4.75689,0 8.607422,3.824949 8.607422,8.556641 0,4.73179 -3.850532,8.55664 -8.607422,8.55664 h -6.880859 v 22.244141 h 3.439453 V 41.058594 h 3.441406 c 6.657086,0 12.046875,-5.36557 12.046875,-11.972656 0,-6.607088 -5.389789,-11.972657 -12.046875,-11.972657 z m 6.892578,6.84375 v 10.271485 h 6.880859 c 2.856594,0 5.166016,-2.299166 5.166016,-5.13086 v -0.01172 c 0,-2.831596 -2.309422,-5.128907 -5.166016,-5.128907 z" />
</svg>
