<?xml version="1.0" encoding="UTF-8" standalone="no"?>
<svg
   width="512"
   height="512"
   viewBox="0 0 512 512"
   fill="none"
   version="1.1"
   id="svg297"
   xmlns="http://www.w3.org/2000/svg"
   xmlns:svg="http://www.w3.org/2000/svg">
  <defs
     id="defs301" />
  <path
     id="path291"
     style="fill:#171518;fill-opacity:1;stroke-width:6.64935"
     d="M 0,0 V 512 H 512 V 0 Z m 148.81818,91.000001 h 114.46753 c 56.90177,0 103.06494,45.835299 103.06494,102.402599 0,56.56796 -46.16317,102.40259 -103.06494,102.40259 V 421 H 148.81818 Z m 22.88312,22.792209 v 284.41558 h 22.87013 v -261.7013 h 68.71428 c 31.63023,0 57.23377,25.43343 57.23377,56.89611 0,31.46333 -25.60354,56.8961 -57.23377,56.8961 h -45.75324 v 147.90909 h 22.87013 v -125.1948 h 22.88311 c 44.2653,0 80.1039,-35.67756 80.1039,-79.61039 0,-43.93284 -35.8386,-79.61039 -80.1039,-79.61039 z m 45.83117,45.50649 v 68.29871 h 45.75324 c 18.9945,0 34.35066,-15.28797 34.35066,-34.11689 v -0.0779 c 0,-18.82828 -15.35616,-34.1039 -34.35066,-34.1039 z" />
</svg>
