<?xml version="1.0" encoding="UTF-8" standalone="no"?>
<svg
   width="235"
   height="35"
   viewBox="0 0 235 35"
   fill="none"
   version="1.1"
   id="svg2279"
   sodipodi:docname="logo-horizontal.svg"
   inkscape:version="1.2 (dc2aedaf03, 2022-05-15)"
   xmlns:inkscape="http://www.inkscape.org/namespaces/inkscape"
   xmlns:sodipodi="http://sodipodi.sourceforge.net/DTD/sodipodi-0.dtd"
   xmlns="http://www.w3.org/2000/svg"
   xmlns:svg="http://www.w3.org/2000/svg">
  <defs
     id="defs2283" />
  <sodipodi:namedview
     id="namedview2281"
     pagecolor="#ffffff"
     bordercolor="#000000"
     borderopacity="0.25"
     inkscape:showpageshadow="2"
     inkscape:pageopacity="0.0"
     inkscape:pagecheckerboard="0"
     inkscape:deskcolor="#d1d1d1"
     showgrid="false"
     inkscape:zoom="1.487234"
     inkscape:cx="59.506438"
     inkscape:cy="88.082976"
     inkscape:window-width="1920"
     inkscape:window-height="974"
     inkscape:window-x="-11"
     inkscape:window-y="-11"
     inkscape:window-maximized="1"
     inkscape:current-layer="svg2279" />
  <path
     id="path2247"
     style="fill:#00ce8e;fill-opacity:1"
     d="M 79.484375 0.1796875 L 79.484375 26.744141 L 83.986328 26.744141 L 83.986328 0.1796875 L 79.484375 0.1796875 z M 0 0.91992188 L 0 26.714844 L 4.8867188 26.714844 L 4.8867188 16.912109 L 10.365234 16.912109 C 15.755019 16.912109 18.953125 13.595071 18.953125 8.9160156 C 18.953125 4.2369397 15.755019 0.91992187 10.365234 0.91992188 L 0 0.91992188 z M 119.625 2.2675781 L 119.625 32.177734 L 122.625 32.177734 L 122.625 2.2675781 L 119.625 2.2675781 z M 4.8867188 5.0058594 L 10.128906 5.0058594 C 13.001497 5.0058594 14.185547 6.8430119 14.185547 8.9160156 C 14.185547 10.98898 13.001497 12.824219 10.128906 12.824219 L 4.8867188 12.824219 L 4.8867188 5.0058594 z M 27.15625 7.8496094 C 21.618368 7.8496094 18.361328 11.75933 18.361328 17.445312 C 18.361328 23.131297 21.617759 27.039366 27.214844 27.009766 C 29.554435 27.009766 31.687775 26.033431 32.576172 24.552734 L 32.576172 26.744141 L 37.107422 26.744141 L 37.107422 8.1464844 L 32.576172 8.1464844 L 32.576172 10.248047 C 31.510075 8.7969409 29.466144 7.8496094 27.15625 7.8496094 z M 47.767578 7.8496094 C 42.259296 7.8496094 39.001953 11.75933 39.001953 17.445312 C 39.001953 23.131297 42.260337 27.039062 47.857422 27.039062 C 50.167416 27.039063 52.327997 26.121116 53.246094 24.669922 L 53.246094 27.335938 C 53.246094 29.290432 51.943113 30.652344 50.136719 30.652344 L 41.578125 30.652344 L 41.578125 34.265625 L 50.759766 34.265625 C 54.905751 34.265625 57.71875 31.660738 57.71875 27.78125 L 57.71875 8.1464844 L 53.1875 8.1464844 L 53.1875 10.248047 C 52.121303 8.7969409 50.107072 7.8496094 47.767578 7.8496094 z M 68.498047 7.8496094 C 62.397465 7.8496094 59.376953 12.469084 59.376953 17.355469 C 59.376953 22.241854 62.782534 27.009766 68.853516 27.009766 C 73.402676 27.009766 76.861214 24.476546 77.583984 20.554688 L 73.207031 20.554688 C 72.733234 22.331582 71.222306 23.279297 68.882812 23.279297 C 66.010221 23.279297 64.115163 21.354272 63.759766 18.363281 L 77.470703 18.363281 C 77.500303 18.007884 77.53125 17.444163 77.53125 16.822266 C 77.53125 12.380078 74.746729 7.8496094 68.498047 7.8496094 z M 77.583984 20.554688 L 77.589844 20.554688 L 77.589844 20.525391 C 77.588063 20.535258 77.5858 20.544838 77.583984 20.554688 z M 106.55273 7.8789062 C 105.87176 7.8789063 105.2205 8.144989 104.6875 8.6484375 C 104.2135 9.151886 103.94727 9.8051704 103.94727 10.486328 C 103.94727 11.522825 104.56988 12.470469 105.54688 12.855469 C 106.52385 13.240466 107.61938 13.033266 108.35938 12.292969 C 109.10035 11.552569 109.33685 10.426133 108.92188 9.4785156 C 108.53688 8.5012386 107.58873 7.8789062 106.55273 7.8789062 z M 85.052734 8.1464844 L 91.863281 26.744141 L 89.228516 34.265625 L 93.552734 34.265625 L 96.423828 25.855469 L 102.91016 8.1464844 L 98.261719 8.1464844 L 93.996094 20.910156 L 89.671875 8.1464844 L 85.052734 8.1464844 z M 106.39258 8.3535156 C 106.44549 8.3512601 106.49905 8.3516644 106.55273 8.3535156 C 107.70773 8.3535156 108.6257 9.3000719 108.5957 10.455078 C 108.5957 11.313875 108.09297 12.084359 107.29297 12.410156 C 106.49397 12.735956 105.57542 12.559397 104.98242 11.9375 C 104.39042 11.315603 104.21236 10.4265 104.56836 9.6269531 C 104.90117 8.8773398 105.59889 8.3873483 106.39258 8.3535156 z M 105.57617 8.9453125 L 105.57617 11.966797 L 106.04883 11.966797 L 106.04883 10.664062 L 106.43359 10.664062 L 107.29297 11.966797 L 107.85547 11.966797 L 106.99609 10.632812 C 107.20309 10.632812 107.41255 10.544584 107.56055 10.396484 C 107.70855 10.218787 107.79758 10.011957 107.76758 9.8046875 C 107.76758 9.2124093 107.41147 8.9453125 106.73047 8.9453125 L 105.60547 8.9453125 L 105.57617 8.9453125 z M 106.04883 9.390625 L 106.73047 9.390625 C 107.05547 9.390625 107.26367 9.4789384 107.26367 9.8046875 C 107.26367 10.130457 107.02703 10.248047 106.58203 10.248047 L 106.04883 10.248047 L 106.04883 9.390625 z M 146.42578 10.447266 C 145.60179 10.434819 144.81089 10.629072 144.11133 11.056641 C 141.59433 12.626137 141.29964 16.654853 143.43164 20.060547 C 145.00064 22.577741 147.45839 24.027647 149.65039 23.998047 C 151.84139 24.027647 154.29914 22.548141 155.86914 20.060547 C 158.00114 16.654853 157.7045 12.626137 155.1875 11.056641 C 153.5885 10.079343 151.51639 10.317658 149.65039 11.472656 C 148.60077 10.82297 147.48519 10.463269 146.42578 10.447266 z M 68.46875 11.226562 C 71.163641 11.226563 72.793003 13.0019 72.970703 15.371094 L 63.818359 15.371094 C 64.292259 12.557703 65.921959 11.226563 68.46875 11.226562 z M 27.837891 11.759766 C 30.917782 11.759766 32.902344 14.039724 32.902344 17.445312 C 32.902344 20.880603 30.917782 23.130859 27.837891 23.130859 C 24.8469 23.130859 22.863281 20.880603 22.863281 17.445312 C 22.863281 14.010024 24.8469 11.759766 27.837891 11.759766 z M 48.449219 11.759766 C 51.52911 11.759766 53.513672 14.039724 53.513672 17.445312 C 53.513672 20.880603 51.46991 23.130859 48.449219 23.130859 C 45.428628 23.130859 43.474609 20.880603 43.474609 17.445312 C 43.474609 14.010024 45.398928 11.759766 48.449219 11.759766 z M 146.28516 11.759766 C 146.81466 11.744966 147.38539 11.8568 147.96289 12.09375 C 148.13989 12.15295 148.31614 12.241178 148.49414 12.330078 C 147.87214 12.892778 147.28064 13.573752 146.80664 14.34375 C 145.50364 16.416746 145.1185 18.697107 145.5625 20.533203 C 145.2075 20.207403 144.88194 19.794112 144.58594 19.320312 C 144.14094 18.609514 143.81542 17.838359 143.60742 17.068359 C 143.43042 16.327961 143.34139 15.618598 143.40039 14.9375 C 143.48939 13.693602 144.02256 12.687092 144.85156 12.183594 C 145.26606 11.917044 145.75566 11.774566 146.28516 11.759766 z M 152.85547 11.849609 C 153.45906 11.830864 154.01025 11.971673 154.47656 12.271484 C 155.30556 12.804584 155.83873 13.781593 155.92773 15.025391 C 155.95773 15.647289 155.89841 16.359211 155.69141 17.099609 C 155.48441 17.869609 155.15884 18.638911 154.71484 19.349609 C 154.41884 19.793809 154.09162 20.238047 153.76562 20.623047 C 154.18062 18.994251 153.88425 16.97928 152.90625 15.083984 C 152.84725 14.965584 152.67073 14.907194 152.55273 14.996094 L 149.47266 16.921875 C 149.35466 16.981075 149.32381 17.158844 149.38281 17.277344 L 149.82617 17.986328 C 149.88617 18.104828 150.06459 18.135372 150.18359 18.076172 L 152.19727 16.832031 C 152.25627 17.009731 152.31405 17.216528 152.37305 17.423828 C 152.55105 18.164126 152.64103 18.875541 152.58203 19.556641 C 152.49303 20.800437 151.95986 21.807047 151.13086 22.310547 C 150.71586 22.577047 150.24198 22.694909 149.70898 22.724609 L 149.67969 22.724609 L 149.65039 22.724609 C 149.11739 22.694909 148.64352 22.577047 148.22852 22.310547 C 147.39952 21.777447 146.86634 20.800437 146.77734 19.556641 C 146.71834 18.875541 146.80738 18.164126 146.98438 17.423828 C 147.19236 16.65383 147.51889 15.884526 147.96289 15.173828 C 148.40689 14.46303 148.93855 13.841592 149.56055 13.308594 C 150.12355 12.805094 150.74619 12.450092 151.36719 12.183594 C 151.88562 11.976306 152.38601 11.864189 152.85547 11.849609 z M 164.57617 13.21875 C 162.23617 13.21875 160.40039 14.907542 160.40039 17.335938 C 160.40039 19.675432 162.11761 21.333984 164.30859 21.333984 C 165.46359 21.333984 166.50075 20.859539 167.09375 20.119141 L 167.09375 20.859375 C 167.09375 21.007475 167.21138 21.125 167.35938 21.125 L 168.24805 21.125 C 168.39605 21.125 168.51367 21.007475 168.51367 20.859375 L 168.51367 17.779297 C 168.51367 17.631197 168.39605 17.542969 168.24805 17.542969 L 165.375 17.542969 C 165.227 17.542969 165.10938 17.660494 165.10938 17.808594 L 165.10938 18.638672 C 165.10938 18.786772 165.227 18.904297 165.375 18.904297 L 166.35156 18.904297 C 166.02656 19.348495 165.37586 19.734375 164.54688 19.734375 C 162.97688 19.734375 162.11719 18.60839 162.11719 17.246094 C 162.11719 15.854296 163.12364 14.759766 164.51562 14.759766 C 165.58162 14.759766 166.29273 15.261655 166.67773 16.001953 C 166.70773 16.061253 166.73688 16.120791 166.79688 16.150391 C 166.85586 16.179991 166.91491 16.179991 167.00391 16.150391 L 168.09961 15.736328 C 168.24761 15.677128 168.30664 15.617794 168.30664 15.558594 C 168.30664 15.528994 168.30734 15.498653 168.27734 15.439453 C 167.68534 13.958657 166.29317 13.21875 164.57617 13.21875 z M 175.5625 13.367188 C 175.4135 13.367188 175.32617 13.455416 175.32617 13.603516 L 175.32617 20.947266 C 175.32617 21.095364 175.4135 21.214844 175.5625 21.214844 L 178.58203 21.214844 C 181.01103 21.214844 182.66992 19.614885 182.66992 17.275391 C 182.66992 14.935795 180.98103 13.367187 178.58203 13.367188 L 175.5625 13.367188 z M 193.86328 13.367188 C 193.74528 13.367188 193.62695 13.455416 193.62695 13.603516 L 193.62695 16.298828 C 193.36095 15.91383 192.76834 15.587891 192.02734 15.587891 C 190.63536 15.587891 189.33203 16.68414 189.33203 18.460938 C 189.33203 20.208234 190.63661 21.333984 192.05859 21.333984 C 192.76959 21.333984 193.33095 21.00835 193.62695 20.59375 L 193.62695 20.947266 C 193.62695 21.095364 193.74528 21.185547 193.86328 21.185547 L 194.99023 21.185547 C 195.13823 21.185547 195.22656 21.095364 195.22656 20.947266 L 195.22656 13.603516 C 195.22656 13.455416 195.13823 13.367188 194.99023 13.367188 L 193.86328 13.367188 z M 200.23047 13.367188 C 200.11247 13.367188 199.99414 13.455416 199.99414 13.603516 L 199.99414 16.298828 C 199.72814 15.91383 199.13553 15.587891 198.39453 15.587891 C 196.97353 15.587891 195.67022 16.68414 195.69922 18.460938 C 195.69922 20.208234 197.00378 21.333984 198.42578 21.333984 C 199.13678 21.333984 199.69814 21.00835 199.99414 20.59375 L 199.99414 20.947266 C 199.99414 21.095364 200.11247 21.185547 200.23047 21.185547 L 201.35742 21.185547 C 201.50542 21.185547 201.59375 21.095364 201.59375 20.947266 L 201.59375 13.603516 C 201.59375 13.455416 201.50542 13.367188 201.35742 13.367188 L 200.23047 13.367188 z M 232.95508 14.818359 L 232.95508 17.128906 C 232.65908 16.743908 232.15564 16.595703 231.68164 16.595703 C 230.43764 16.595703 229.72656 17.602849 229.72656 18.935547 C 229.72656 20.297845 230.43764 21.273438 231.68164 21.273438 C 232.18464 21.273438 232.65908 21.127186 232.95508 20.742188 L 232.95508 21.185547 L 234.05078 21.185547 L 234.05078 14.818359 L 232.95508 14.818359 z M 210.89258 14.876953 L 210.89258 21.185547 L 213.26172 21.185547 C 214.62372 21.185547 215.42383 20.41601 215.42383 19.320312 C 215.42383 18.639114 215.06731 18.106747 214.44531 17.810547 C 214.88931 17.484847 215.09766 17.098159 215.09766 16.505859 C 215.09766 15.528561 214.29798 14.876953 213.08398 14.876953 L 210.89258 14.876953 z M 176.98438 14.90625 L 178.64258 14.90625 C 179.97558 14.90625 180.89258 15.913093 180.89258 17.275391 C 180.89258 18.607987 179.97558 19.644531 178.64258 19.644531 L 176.98438 19.644531 L 176.98438 14.90625 z M 135.61133 14.996094 L 133.125 21.214844 L 134.30859 21.214844 L 134.8125 19.882812 L 137.15234 19.882812 L 137.65625 21.214844 L 138.86914 21.214844 L 136.41211 14.996094 L 135.61133 14.996094 z M 171.91992 15.587891 C 170.29092 15.587891 168.95703 16.861538 168.95703 18.490234 C 168.95703 20.119032 170.29092 21.363281 171.91992 21.363281 C 173.54892 21.363281 174.88086 20.089432 174.88086 18.490234 C 174.88086 16.861538 173.57792 15.587891 171.91992 15.587891 z M 185.7207 15.587891 C 184.2997 15.587891 182.99609 16.683838 182.99609 18.490234 C 182.99609 20.237532 184.2997 21.363281 185.7207 21.363281 C 186.4317 21.363281 187.02206 21.037645 187.28906 20.623047 L 187.28906 20.978516 C 187.28906 21.126514 187.40834 21.214844 187.52734 21.214844 L 188.65234 21.214844 C 188.80034 21.214844 188.88867 21.126514 188.88867 20.978516 L 188.88867 16.001953 C 188.88867 15.883553 188.80034 15.765625 188.65234 15.765625 L 187.52734 15.765625 C 187.40834 15.765625 187.28906 15.853953 187.28906 16.001953 L 187.28906 16.328125 C 187.02206 15.913525 186.4617 15.587891 185.7207 15.587891 z M 202.24414 15.736328 C 201.97814 15.736328 201.91852 15.913794 201.97852 16.121094 L 203.48828 20.947266 C 203.54728 21.095364 203.63716 21.185547 203.78516 21.185547 L 204.4668 21.185547 L 204.31836 21.658203 C 204.17036 22.072803 203.90483 22.191406 203.54883 22.191406 C 203.25283 22.191406 203.04589 22.073881 202.83789 21.925781 C 202.74989 21.866581 202.68956 21.835938 202.60156 21.835938 C 202.51256 21.835938 202.42298 21.895172 202.33398 22.013672 L 202.00781 22.517578 C 201.94881 22.636078 201.91992 22.666756 201.91992 22.785156 C 201.91992 22.962856 202.09769 23.080819 202.30469 23.199219 C 202.66069 23.406519 203.13497 23.525391 203.66797 23.525391 C 204.79297 23.525391 205.53142 22.903382 205.85742 21.896484 L 207.54688 16.121094 C 207.60586 15.913794 207.54684 15.736328 207.33984 15.736328 L 206.21289 15.736328 C 206.03589 15.736328 205.94797 15.853953 205.91797 16.001953 L 204.88086 19.882812 L 203.75586 16.001953 C 203.69686 15.794653 203.57769 15.736328 203.42969 15.736328 L 202.24414 15.736328 z M 212.01758 15.884766 L 213.08398 15.884766 C 213.70598 15.884766 214.06055 16.210097 214.06055 16.654297 C 214.06055 17.157695 213.73583 17.423828 213.17383 17.423828 L 212.01758 17.423828 L 212.01758 15.884766 z M 135.99609 16.564453 L 136.85547 18.904297 L 135.13867 18.904297 L 135.99609 16.564453 z M 218.71094 16.625 C 218.17794 16.625 217.73309 16.950972 217.49609 17.513672 L 217.49609 16.714844 L 216.43164 16.714844 L 216.43164 21.185547 L 217.49609 21.185547 L 217.49609 19.291016 C 217.49609 18.373018 218.00025 17.691406 218.74023 17.691406 C 218.97723 17.691406 219.12584 17.749697 219.21484 17.779297 L 219.21484 16.683594 C 219.09684 16.653894 218.94794 16.625 218.71094 16.625 z M 221.76172 16.625 C 220.93272 16.625 220.33894 16.920464 219.83594 17.601562 L 220.66406 18.195312 C 220.87206 17.810314 221.25717 17.572266 221.70117 17.572266 C 222.23417 17.572266 222.58984 17.897633 222.58984 18.519531 L 221.43555 18.519531 C 220.31055 18.519531 219.6582 19.024014 219.6582 19.882812 C 219.6582 20.741612 220.25152 21.275391 221.22852 21.275391 C 221.85052 21.275391 222.32469 21.009056 222.67969 20.535156 L 222.76758 21.185547 L 223.65625 21.185547 L 223.65625 18.431641 C 223.65625 17.335943 222.97572 16.625 221.76172 16.625 z M 227.21094 16.625 C 226.70794 16.625 226.23225 16.861094 225.90625 17.246094 L 225.90625 16.714844 L 224.81055 16.714844 L 224.81055 21.214844 L 225.90625 21.214844 L 225.90625 18.728516 C 225.90625 17.958516 226.29206 17.601562 226.91406 17.601562 C 227.41706 17.601563 227.77344 17.927974 227.77344 18.638672 L 227.77344 21.185547 L 228.83984 21.185547 L 228.83984 18.490234 C 228.83984 17.276038 228.18794 16.625 227.21094 16.625 z M 192.38477 17.068359 C 193.12475 17.068359 193.6875 17.661338 193.6875 18.460938 C 193.6875 19.260536 193.12475 19.851562 192.38477 19.851562 C 191.61477 19.851562 191.05108 19.290136 191.08008 18.460938 C 191.08008 17.661338 191.64377 17.068359 192.38477 17.068359 z M 198.7207 17.068359 C 199.4607 17.068359 200.02344 17.661338 200.02344 18.460938 C 200.02344 19.260536 199.4607 19.851562 198.7207 19.851562 C 197.9807 19.851562 197.41797 19.290136 197.41797 18.460938 C 197.41797 17.661338 197.9807 17.068359 198.7207 17.068359 z M 171.91992 17.097656 C 172.68992 17.097656 173.25391 17.720638 173.25391 18.460938 C 173.25391 19.201336 172.68992 19.822266 171.91992 19.822266 C 171.17992 19.822266 170.58789 19.201336 170.58789 18.460938 C 170.58789 17.720638 171.17992 17.097656 171.91992 17.097656 z M 186.01562 17.128906 C 186.75662 17.128906 187.31836 17.690736 187.31836 18.490234 C 187.31836 19.289834 186.75662 19.851562 186.01562 19.851562 C 185.27564 19.851562 184.71289 19.260234 184.71289 18.490234 C 184.71289 17.690736 185.27564 17.128906 186.01562 17.128906 z M 231.97852 17.601562 C 232.7485 17.601562 233.07422 18.194846 233.07422 18.964844 C 233.07422 19.734842 232.7185 20.326172 231.97852 20.326172 C 231.23852 20.326172 230.88281 19.734842 230.88281 18.964844 C 230.88281 18.224444 231.20852 17.601562 231.97852 17.601562 z M 212.01758 18.402344 L 213.29102 18.402344 C 213.91302 18.402344 214.29883 18.757916 214.29883 19.291016 C 214.29883 19.883214 213.94261 20.179688 213.34961 20.179688 L 212.01758 20.179688 L 212.01758 18.402344 z M 221.52344 19.320312 L 222.61914 19.320312 C 222.61914 19.853412 222.08755 20.357422 221.43555 20.357422 C 221.02155 20.357422 220.7832 20.149614 220.7832 19.853516 C 220.7832 19.527716 221.02044 19.320312 221.52344 19.320312 z " />
  <g
     id="path2261"
     style="fill:#cccccc">
    <path
       style="color:#000000;fill:#cccccc;stroke-width:3;stroke-miterlimit:10;-inkscape-stroke:none"
       d="M 121.125,2.26746 V 32.1781"
       id="path2541" />
  </g>
</svg>
