<?xml version="1.0" encoding="UTF-8" standalone="no"?>
<svg
   width="166"
   height="50"
   viewBox="0 0 166 50"
   fill="none"
   version="1.1"
   id="svg2279"
   xmlns="http://www.w3.org/2000/svg"
   xmlns:svg="http://www.w3.org/2000/svg">
  <defs
     id="defs2283" />
  <path
     id="path2247"
     style="fill:#ffffff;stroke-width:1.01001"
     d="m 136.09441,11.294196 v 26.858777 h 4.54217 V 11.294196 Z m -80.19448,0.748435 v 26.08072 h 4.930377 v -9.911345 h 5.527459 c 5.437938,0 8.664615,-3.35379 8.664615,-8.084687 0,-4.730919 -3.226677,-8.084688 -8.664615,-8.084688 z m 4.930377,4.131209 h 5.289021 c 2.898254,0 4.092882,1.857507 4.092882,3.953479 0,2.095932 -1.194628,3.951505 -4.092882,3.951505 h -5.289021 z m 22.468485,2.875257 c -5.587358,0 -8.873495,3.953039 -8.873495,9.702019 0,5.748984 3.285524,9.700353 8.932612,9.670425 2.360493,0 4.512892,-0.987152 5.409226,-2.484255 v 2.215687 h 4.571732 V 19.349261 h -4.571732 v 2.124848 c -1.075621,-1.467184 -3.137813,-2.425012 -5.468343,-2.425012 z m 20.795468,0 c -5.557499,0 -8.843937,3.953039 -8.843937,9.702019 0,5.748984 3.287498,9.700046 8.934587,9.700046 2.33062,1e-6 4.51051,-0.928117 5.43681,-2.39539 v 2.695555 c 0,1.976149 -1.31463,3.35315 -3.13715,3.35315 h -8.635056 v 3.653315 h 9.263656 c 4.18304,0 7.02117,-2.633748 7.02117,-6.556219 V 19.349261 h -4.57174 v 2.124848 c -1.07572,-1.467184 -3.10795,-2.425012 -5.46834,-2.425012 z m 20.91567,0 c -6.15508,0 -9.20258,4.670657 -9.20258,9.611181 0,4.940524 3.436,9.761263 9.56123,9.761263 4.5898,0 8.07924,-2.561287 8.80846,-6.526598 h -4.41605 c -0.47804,1.796581 -2.00247,2.754797 -4.36286,2.754797 -2.89825,0 -4.81024,-1.946354 -5.16881,-4.970484 h 13.83343 c 0.0298,-0.359334 0.0612,-0.929301 0.0612,-1.558089 0,-4.491405 -2.8094,-9.07207 -9.1139,-9.07207 z m 9.16711,12.845846 h 0.006 v -0.02962 c -0.002,0.01001 -0.004,0.01966 -0.006,0.02962 z M 163.4046,19.078719 c -0.68706,0 -1.34414,0.26903 -1.8819,0.778057 -0.47823,0.509026 -0.74684,1.169549 -0.74684,1.858254 0,1.047981 0.62817,2.006124 1.61389,2.39539 0.98571,0.389262 2.09103,0.179767 2.83764,-0.568732 0.74759,-0.748604 0.9862,-1.88752 0.56752,-2.845637 -0.38844,-0.988105 -1.34506,-1.617332 -2.39031,-1.617332 z m -21.69208,0.270542 6.87139,18.803712 -2.65831,7.604819 h 4.36285 l 2.89674,-8.503337 6.54429,-17.905194 h -4.68996 l -4.30374,12.905089 -4.36286,-12.905089 z m 21.53049,0.209325 c 0.0534,-0.0023 0.10742,-0.0019 0.16159,0 1.16532,0 2.09149,0.957044 2.06121,2.124847 0,0.868313 -0.50722,1.647333 -1.31436,1.97674 -0.80614,0.32941 -1.7329,0.150894 -2.33119,-0.477893 -0.59729,-0.628787 -0.77694,-1.527741 -0.41777,-2.336147 0.33579,-0.757919 1.03974,-1.253339 1.84052,-1.287547 z m -0.8237,0.598354 v 3.054962 h 0.47689 v -1.317169 h 0.38819 l 0.86706,1.317169 h 0.56752 l -0.86706,-1.348765 c 0.20885,0 0.42018,-0.08921 0.5695,-0.238947 0.14933,-0.179666 0.23916,-0.388787 0.20889,-0.598353 0,-0.598841 -0.3593,-0.868897 -1.04638,-0.868897 h -1.13505 z m 0.47689,0.450247 h 0.68772 c 0.32791,0 0.53797,0.08929 0.53797,0.41865 0,0.329379 -0.23876,0.448272 -0.68774,0.448272 h -0.53795 z m -37.91583,1.856278 c 2.71897,1e-6 4.36288,1.795008 4.54217,4.190452 h -9.2341 c 0.47813,-2.844562 2.1224,-4.190451 4.69193,-4.190452 z m -40.993848,0.539112 c 3.107407,0 5.109699,2.305219 5.109699,5.748539 0,3.473353 -2.002292,5.748541 -5.109699,5.748541 -3.017712,0 -5.019052,-2.275188 -5.019052,-5.748541 0,-3.473349 2.00134,-5.748539 5.019052,-5.748539 z m 20.795468,0 c 3.10741,0 5.1097,2.305219 5.1097,5.748539 0,3.473353 -2.06202,5.748541 -5.1097,5.748541 -3.04758,0 -5.019049,-2.275188 -5.019049,-5.748541 0,-3.473349 1.941499,-5.748539 5.019049,-5.748539 z" />
  <g
     id="path2261"
     style="fill:#ffffff"
     transform="matrix(1.0089339,0,0,1.0110796,-1.9778024,11.112517)">
    <path
       style="color:#000000;fill:#ffffff;stroke-width:3;stroke-miterlimit:10;-inkscape-stroke:none"
       d="M 121.125,2.26746 V 32.1781"
       id="path2541" />
  </g>
  <path
     id="path291"
     style="fill:#ffffff;fill-opacity:1;stroke-width:0.648663"
     d="M 0,0 V 50 H 49.893891 V 0 Z m 14.502183,8.8867218 h 11.154749 c 5.545014,0 10.043574,4.4760972 10.043574,10.0002462 0,5.524221 -4.49856,10.000259 -10.043574,10.000259 V 41.113278 H 14.502183 Z m 2.22994,2.2257952 V 38.887483 H 18.96079 V 13.33071 h 6.696142 c 3.082326,0 5.577373,2.483739 5.577373,5.556258 0,3.072598 -2.495047,5.556259 -5.577373,5.556259 h -4.458609 v 14.444256 h 2.22867 V 26.661422 h 2.229939 c 4.31361,0 7.80604,-3.484134 7.80604,-7.774454 0,-4.290308 -3.49243,-7.774451 -7.80604,-7.774451 z m 4.4662,4.443998 v 6.669794 h 4.458609 c 1.85099,0 3.347434,-1.492962 3.347434,-3.33173 v -0.0078 c 0,-1.838709 -1.496444,-3.330465 -3.347434,-3.330465 z" />
</svg>
